<mxfile host="app.diagrams.net" modified="2023-06-30T08:08:12.132Z" agent="Mozilla/5.0 (Macintosh; Intel Mac OS X 10_15_7) AppleWebKit/537.36 (KHTML, like Gecko) Chrome/111.0.0.0 Safari/537.36" version="21.5.2" etag="FOOwm5q7xlSvveWNopxm" type="github">
  <diagram name="第 1 页" id="euliOH3f90ZcuTvM4HyG">
    <mxGraphModel>
      <root>
        <mxCell id="0" />
        <mxCell id="1" parent="0" />
      </root>
    </mxGraphModel>
  </diagram>
</mxfile>
